<?xml version="1.0" encoding="UTF-8"?>
<svg xmlns="http://www.w3.org/2000/svg" xmlns:xlink="http://www.w3.org/1999/xlink" viewBox="0 0 64 64" width="64px" height="64px">
<g id="surface18386293">
<path style=" stroke:none;fill-rule:nonzero;fill:rgb(7.058824%,96.470588%,3.921569%);fill-opacity:1;" d="M 32 63.039062 C 14.855469 63.039062 0.960938 49.144531 0.960938 32 C 0.960938 14.855469 14.855469 0.960938 32 0.960938 C 49.144531 0.960938 63.039062 14.855469 63.039062 32 C 63.039062 49.144531 49.144531 63.039062 32 63.039062 Z M 32 63.039062 "/>
<path style=" stroke:none;fill-rule:nonzero;fill:rgb(0%,0%,0%);fill-opacity:1;" d="M 42.601562 34.152344 L 42.601562 46.28125 L 47.921875 46.28125 C 49.277344 46.28125 50.375 45.183594 50.375 43.828125 L 50.375 30.371094 Z M 42.601562 32.148438 L 50.375 26.964844 L 50.375 23.128906 C 50.375 21.777344 49.800781 20.457031 48.730469 19.628906 C 47.078125 18.351562 44.832031 18.449219 43.3125 19.738281 L 42.601562 20.296875 Z M 23.386719 33.433594 L 32 38.507812 L 40.726562 33.367188 L 40.085938 22.269531 L 32 28.613281 L 24.027344 22.359375 Z M 21.507812 32.21875 L 21.507812 20.382812 L 20.6875 19.738281 C 19.167969 18.449219 16.921875 18.351562 15.269531 19.628906 C 14.199219 20.457031 13.625 21.777344 13.625 23.132812 L 13.625 26.964844 Z M 13.625 30.371094 L 13.625 43.828125 C 13.625 45.183594 14.722656 46.28125 16.078125 46.28125 L 21.398438 46.28125 L 21.398438 34.152344 Z M 13.625 30.371094 "/>
</g>
</svg>
